<svg xmlns="http://www.w3.org/2000/svg" width="78.747" height="52.497"><path fill="#5f6243" d="M63.982 22.966a14.7 14.7 0 00-2.637.267l-5.178-17.26 8.332-2.777A1.64 1.64 0 1063.461.085l-9.842 3.281a1.64 1.64 0 00-1.053 2.027l2.319 7.732H30.544l-3.281-6.559h3.907a1.641 1.641 0 000-3.281h-9.843a1.641 1.641 0 000 3.281h2.272l4.051 8.1-6.358 9.89a14.583 14.583 0 00-6.522-1.586 14.765 14.765 0 1014.6 16.406h5.39a4.909 4.909 0 108.746-4.3l12.932-16.78 1.757 5.857a14.756 14.756 0 105.786-1.186zm-49.217 26.25a11.484 11.484 0 010-22.968 11.369 11.369 0 014.751 1.059l-6.131 9.537a1.64 1.64 0 001.379 2.528h11.319a11.468 11.468 0 01-11.318 9.844zm3.006-13.125l4.491-6.987a11.4 11.4 0 013.821 6.987zm16.983 0h-5.39a14.657 14.657 0 00-5.324-9.753l5.311-8.262 7.678 15.356a4.914 4.914 0 00-2.275 2.66zm4.619 3.281a1.641 1.641 0 111.641-1.641 1.642 1.642 0 01-1.641 1.642zm1.52-6.3c-.147-.048-.29-.1-.443-.138l-8.266-16.533h21.57zm23.089 16.144a11.461 11.461 0 01-4.828-21.867l3.256 10.854a1.641 1.641 0 001.572 1.17 1.661 1.661 0 00.471-.069 1.642 1.642 0 001.1-2.043l-3.254-10.843a11.333 11.333 0 011.681-.17 11.484 11.484 0 010 22.968z"/></svg>