<svg xmlns="http://www.w3.org/2000/svg" width="31.891" height="86.734"><defs><style>.cls-1{fill:#5f6243}</style></defs><g id="outline" transform="translate(-21 -2)"><path id="Path_162" d="M26.8 88.734h20.293a5.79 5.79 0 005.8-5.782V54.041A34.344 34.344 0 0048.4 37.493l-4.331-8.637a10.791 10.791 0 01-1.322-5.172V10.673h1.45a1.448 1.448 0 001.45-1.446V6.292A4.326 4.326 0 0041.294 2H32.6a4.326 4.326 0 00-4.349 4.292v2.936a1.448 1.448 0 001.45 1.446h1.45v13.01a10.791 10.791 0 01-1.315 5.172l-4.31 8.6A34.394 34.394 0 0021 54.041v28.911a5.79 5.79 0 005.8 5.782zm4.347-82.442a1.448 1.448 0 011.45-1.4h8.7a1.448 1.448 0 011.45 1.4v1.49h-11.6zm8.7 4.382v2.891h-5.8v-2.892zM23.9 54.041a31.241 31.241 0 014.2-15.255l4.33-8.637a13.625 13.625 0 001.613-6.465v-7.228h5.8v7.228a13.625 13.625 0 001.621 6.465l4.349 8.673a31.19 31.19 0 014.178 15.219v2.891H23.9zm0 5.782h26.092V77.17H23.9zm0 20.238h26.092v2.891a2.9 2.9 0 01-2.9 2.891H26.8a2.9 2.9 0 01-2.9-2.891z" class="cls-1"/><path id="Path_163" d="M31.887 44.564C31.019 45.82 29 48.928 29 50.623a3.979 3.979 0 007.957 0c0-1.695-2.019-4.8-2.887-6.058a1.377 1.377 0 00-2.183 0zm1.091 7.384a1.326 1.326 0 01-1.326-1.326 9.89 9.89 0 011.326-2.847 9.9 9.9 0 011.322 2.848 1.326 1.326 0 01-1.321 1.326z" class="cls-1" transform="translate(3.967 19.495)"/><path id="Rectangle_361" d="M0 0h2v2H0z" class="cls-1" transform="translate(44.946 53.367)"/><path id="Rectangle_362" d="M0 0h2v3H0z" class="cls-1" transform="translate(39.946 46.367)"/></g></svg>