<?xml version="1.0" encoding="utf-8"?><svg xmlns="http://www.w3.org/2000/svg" xmlns:xlink="http://www.w3.org/1999/xlink"><symbol viewBox="0 0 21 22" id="arrow-down" xmlns="http://www.w3.org/2000/svg"><path d="M19.363 9.43l1.04 1.04a1.12 1.12 0 010 1.59l-9.107 9.112a1.12 1.12 0 01-1.59 0L.595 12.059a1.12 1.12 0 010-1.589l1.04-1.04a1.126 1.126 0 011.609.018l5.38 5.649V1.625C8.624 1.002 9.126.5 9.75.5h1.5c.623 0 1.125.502 1.125 1.125v13.472l5.381-5.649a1.118 1.118 0 011.608-.018z"/></symbol><symbol viewBox="0 0 18.414 17.465" id="bedroom-o" xmlns="http://www.w3.org/2000/svg"><defs><style>.abcls-2{fill:none;stroke:#171b0a;stroke-linecap:round;stroke-linejoin:round;stroke-width:1.2px}</style></defs><g id="abLayer_2" opacity=".6" transform="translate(.6 .6)"><g id="abLayer_1"><path id="abPath_102" d="M17.924 16H.71l1.843-5.45H16.08z" class="abcls-2" transform="translate(-.71 -3.881)"/><path id="abPath_103" d="M.71 18.59v4.148H3.2v-2.074h12.528v2.074h2.2V18.59z" class="abcls-2" transform="translate(-.71 -6.473)"/><path id="abPath_104" d="M3.5 7.379V2.513A1.809 1.809 0 015.309.71h9.82a1.8 1.8 0 011.8 1.8v4.869" class="abcls-2" transform="translate(-1.609 -.71)"/><path id="abPath_105" d="M7.392 6.83H8.2a2.142 2.142 0 012.14 2.148v.38H5.25v-.38A2.142 2.142 0 017.392 6.83z" class="abcls-2" transform="translate(-2.173 -2.682)"/><path id="abPath_106" d="M16.2 6.83h.806a2.142 2.142 0 012.144 2.148v.38h-5.09v-.38A2.142 2.142 0 0116.2 6.83z" class="abcls-2" transform="translate(-5.013 -2.682)"/></g></g></symbol><symbol viewBox="0 0 18 20.571" id="calendar" xmlns="http://www.w3.org/2000/svg"><path d="M0 18.643a1.929 1.929 0 001.929 1.929h14.142A1.929 1.929 0 0018 18.643V7.714H0zm12.857-7.875a.484.484 0 01.482-.482h1.607a.484.484 0 01.482.482v1.607a.484.484 0 01-.482.482h-1.607a.484.484 0 01-.482-.482zm0 5.143a.484.484 0 01.482-.482h1.607a.484.484 0 01.482.482v1.607a.484.484 0 01-.482.482h-1.607a.484.484 0 01-.482-.482zm-5.143-5.143a.484.484 0 01.482-.482H9.8a.484.484 0 01.482.482v1.607a.484.484 0 01-.482.482H8.2a.484.484 0 01-.482-.482zm0 5.143a.484.484 0 01.482-.482H9.8a.484.484 0 01.482.482v1.607A.484.484 0 019.8 18H8.2a.484.484 0 01-.482-.482zm-5.143-5.143a.484.484 0 01.482-.482h1.608a.484.484 0 01.482.482v1.607a.484.484 0 01-.482.482H3.054a.484.484 0 01-.482-.482zm0 5.143a.484.484 0 01.482-.482h1.608a.484.484 0 01.482.482v1.607a.484.484 0 01-.482.482H3.054a.484.484 0 01-.482-.482zm13.5-13.339h-1.928V.643A.645.645 0 0013.5 0h-1.286a.645.645 0 00-.643.643v1.928H6.429V.643A.645.645 0 005.786 0H4.5a.645.645 0 00-.643.643v1.928H1.929A1.929 1.929 0 000 4.5v1.929h18V4.5a1.929 1.929 0 00-1.929-1.929z"/></symbol><symbol viewBox="0 0 24 24" stroke-width="2" stroke-linecap="round" stroke-linejoin="round" class="adfeather adfeather-check-circle" id="check-circle-o" xmlns="http://www.w3.org/2000/svg"><path d="M22 11.08V12a10 10 0 11-5.93-9.14"/><path d="M22 4L12 14.01l-3-3"/></symbol><symbol viewBox="0 0 14 12" id="chevron-double-left" xmlns="http://www.w3.org/2000/svg"><g clip-path="url(#aeclip0)"><path d="M.178 6.358l5.321 5.32a.606.606 0 10.859-.858L1.466 5.928l4.892-4.892a.607.607 0 10-.859-.858L.18 5.498a.606.606 0 000 .86zm7.465 0l5.321 5.32a.607.607 0 00.858-.858l-4.89-4.892 4.89-4.891a.606.606 0 10-.858-.859L7.644 5.5a.606.606 0 000 .859z"/></g><defs><clipPath id="aeclip0"><path d="M0 0h14v11.855H0z"/></clipPath></defs></symbol><symbol viewBox="0 0 14 12" id="chevron-double-right" xmlns="http://www.w3.org/2000/svg"><g clip-path="url(#afclip0)"><path d="M13.822 5.498L8.5.178a.607.607 0 10-.859.858l4.892 4.892-4.892 4.892a.607.607 0 10.859.858l5.32-5.32a.607.607 0 000-.86zm-7.465 0L1.036.178a.607.607 0 00-.858.858l4.89 4.892-4.89 4.891a.607.607 0 10.858.859l5.32-5.321a.606.606 0 000-.859z"/></g><defs><clipPath id="afclip0"><path d="M0 0h14v11.855H0z"/></clipPath></defs></symbol><symbol viewBox="0 0 18.573 15.49" id="conditioning-o" xmlns="http://www.w3.org/2000/svg"><defs><style>.agcls-2{fill:none;stroke:#5f4d45;stroke-linecap:round;stroke-linejoin:round;stroke-width:1.2px}</style></defs><g id="agLayer_2" opacity=".8" transform="translate(.6 .6)"><g id="agLayer_1"><rect id="agRectangle_195" width="17.373" height="7.904" class="agcls-2" rx="2.36"/><path id="agLine_35" d="M0 0h8.346" class="agcls-2" transform="translate(1.585 3.952)"/><path id="agLine_36" d="M0 0h3.692" class="agcls-2" transform="translate(11.965 3.952)"/><path id="agLine_37" d="M0 0h3.692" class="agcls-2" transform="translate(1.585 5.726)"/><path id="agLine_38" d="M0 0h8.346" class="agcls-2" transform="translate(7.311 5.726)"/><path id="agLine_39" d="M0 0v3.996" class="agcls-2" transform="translate(12.899 10.076)"/><path id="agLine_40" d="M0 0l3.46 1.998" class="agcls-2" transform="translate(11.169 11.075)"/><path id="agLine_41" d="M3.46 0L0 1.998" class="agcls-2" transform="translate(11.169 11.075)"/><path id="agPath_99" d="M5.521 15c.159.347.434.514.434 1.086 0 .8-.536.8-.536 1.607A1.65 1.65 0 005.84 18.7" class="agcls-2" transform="translate(-2.011 -4.656)"/><path id="agPath_100" d="M10.961 15c.152.347.434.514.434 1.086 0 .8-.536.8-.536 1.607a1.607 1.607 0 00.384.984" class="agcls-2" transform="translate(-3.513 -4.656)"/><path id="agPath_101" d="M8.244 14.25c.159.347.434.514.434 1.093 0 .8-.528.8-.528 1.6a1.607 1.607 0 00.384.984" class="agcls-2" transform="translate(-2.764 -4.449)"/></g></g></symbol><symbol viewBox="0 0 29.25 20.25" id="email" xmlns="http://www.w3.org/2000/svg"><defs><style>.ahcls-1{fill:#5f4d45}</style></defs><g id="ahIcon_ionic-ios-mail" transform="translate(-3.375 -7.875)"><path id="ahPath_150" d="M32.386 10.357l-7.566 7.706a.136.136 0 000 .2l5.295 5.637a.912.912 0 010 1.294.917.917 0 01-1.294 0l-5.273-5.618a.144.144 0 00-.2 0l-1.287 1.308a5.661 5.661 0 01-4.036 1.7 5.775 5.775 0 01-4.12-1.751l-1.238-1.259a.144.144 0 00-.2 0l-5.281 5.619a.917.917 0 01-1.294 0 .912.912 0 010-1.294l5.295-5.639a.15.15 0 000-.2l-7.573-7.703a.139.139 0 00-.239.1v15.42a2.257 2.257 0 002.25 2.25h24.75a2.257 2.257 0 002.25-2.25V10.455a.141.141 0 00-.239-.098z" class="ahcls-1"/><path id="ahPath_151" d="M18 20.749a3.823 3.823 0 002.749-1.149L31.781 8.367a2.21 2.21 0 00-1.392-.492H5.618a2.2 2.2 0 00-1.392.492L15.258 19.6A3.823 3.823 0 0018 20.749z" class="ahcls-1"/></g></symbol><symbol viewBox="0 0 24 24" id="facebook" xmlns="http://www.w3.org/2000/svg"><path d="M24 12c0-6.629-5.371-12-12-12S0 5.371 0 12c0 5.99 4.388 10.954 10.125 11.855v-8.386H7.077V12h3.048V9.356c0-3.007 1.79-4.668 4.532-4.668 1.314 0 2.687.234 2.687.234v2.952H15.83c-1.49 0-1.955.925-1.955 1.874V12h3.328l-.532 3.469h-2.796v8.386C19.612 22.954 24 17.989 24 12z"/></symbol><symbol id="facebook-circle" viewBox="0 0 34.758 34.758" xmlns="http://www.w3.org/2000/svg"><defs><style>.ajcls-1{fill:#5b5b5b;fill-rule:evenodd}</style></defs><g id="ajGroup_69"><path id="ajPath_26" d="M45.7 21.161a17.377 17.377 0 105.091 12.288A17.314 17.314 0 0045.7 21.161zm-.952 23.624a16.042 16.042 0 114.682-11.336 16 16 0 01-4.686 11.336z" class="ajcls-1" transform="translate(-16.029 -16.07)"/><path id="ajPath_27" d="M203.65 135.079c0-.683.329-.964.656-.964h2.1V131h-2.847a3.657 3.657 0 00-3.817 3.906v1.382H198v3.477h1.738v9.127h3.911v-9.127h2.369l.116-1.358.212-2.118h-2.7z" class="ajcls-1" transform="translate(-184.819 -122.675)"/></g></symbol><symbol viewBox="0 0 42 42" id="facebook-square" xmlns="http://www.w3.org/2000/svg"><path d="M37.5 0h-33A4.5 4.5 0 000 4.5v33A4.5 4.5 0 004.5 42h12.867V27.72h-5.906V21h5.906v-5.123c0-5.826 3.469-9.045 8.782-9.045 2.544 0 5.205.454 5.205.454v5.719h-2.932c-2.888 0-3.79 1.792-3.79 3.63V21h6.449l-1.031 6.72h-5.417V42H37.5a4.5 4.5 0 004.5-4.5v-33A4.5 4.5 0 0037.5 0z"/></symbol><symbol viewBox="0 0 21.977 16.139" id="group-o" xmlns="http://www.w3.org/2000/svg"><defs><style>.alcls-2{fill:none;stroke:#171b0a;stroke-linejoin:round;stroke-width:1.4px}</style></defs><g id="alGroup_327" opacity=".6" transform="translate(.7 .7)"><circle id="alEllipse_73" cx="3.056" cy="3.056" r="3.056" class="alcls-2" transform="translate(12.424 1.438)"/><path id="alPath_72" stroke-linecap="round" stroke-linejoin="round" stroke-width="1.4" d="M13.467 9.138a5.018 5.018 0 012.013-.417 5.094 5.094 0 015.1 5.1.922.922 0 01-.92.92h-4.694"/><path id="alPath_73" d="M14.01 28.5a1.043 1.043 0 01-1.043 1.043H1.752A1.043 1.043 0 01.709 28.5a5.575 5.575 0 011.877-4.091 6.36 6.36 0 014.271-1.7h1.006a6.376 6.376 0 014.63 2.056A5.486 5.486 0 0114.01 28.5z" class="alcls-2" transform="translate(-.709 -14.8)"/><path id="alPath_74" d="M16.539 4.124A3.415 3.415 0 1113.124.709a3.414 3.414 0 013.415 3.415z" class="alcls-2" transform="translate(-6.474 -.709)"/></g></symbol><symbol viewBox="0 0 30 24" id="home" xmlns="http://www.w3.org/2000/svg"><path d="M14.381 6.017l-9.466 7.796v8.415a.822.822 0 00.821.822l5.754-.015a.821.821 0 00.818-.821v-4.915a.822.822 0 01.821-.821h3.286a.822.822 0 01.822.821v4.911a.82.82 0 00.821.824l5.752.016a.822.822 0 00.821-.822v-8.42l-9.464-7.791a.626.626 0 00-.786 0zm14.954 5.3l-4.293-3.54V.668a.616.616 0 00-.616-.617h-2.875a.616.616 0 00-.616.616v3.728L16.338.612a2.464 2.464 0 00-3.132 0L.209 11.316a.616.616 0 00-.083.868l1.31 1.591a.616.616 0 00.868.084l12.077-9.947a.626.626 0 01.786 0l12.078 9.947a.615.615 0 00.868-.082l1.309-1.592a.616.616 0 00-.087-.869z"/></symbol><symbol viewBox="0 0 22 22" id="instagram" xmlns="http://www.w3.org/2000/svg"><path d="M11.002 5.358a5.63 5.63 0 00-5.639 5.64 5.63 5.63 0 005.64 5.639 5.63 5.63 0 005.639-5.64 5.63 5.63 0 00-5.64-5.639zm0 9.306a3.673 3.673 0 01-3.666-3.666 3.67 3.67 0 013.666-3.667 3.67 3.67 0 013.667 3.667 3.673 3.673 0 01-3.667 3.666zm7.186-9.536c0 .73-.59 1.315-1.316 1.315a1.315 1.315 0 111.315-1.315zm3.735 1.335c-.084-1.762-.486-3.323-1.777-4.609C18.86.568 17.299.166 15.537.077c-1.816-.103-7.258-.103-9.074 0C4.706.161 3.145.563 1.854 1.85.564 3.135.166 4.696.077 6.458c-.103 1.816-.103 7.259 0 9.075.084 1.761.486 3.322 1.777 4.608 1.29 1.286 2.847 1.688 4.609 1.777 1.816.103 7.259.103 9.074 0 1.762-.084 3.323-.486 4.609-1.777 1.286-1.286 1.688-2.846 1.777-4.608.103-1.816.103-7.254 0-9.07zM19.577 17.48a3.712 3.712 0 01-2.091 2.09c-1.448.575-4.884.442-6.484.442-1.6 0-5.04.128-6.483-.441a3.712 3.712 0 01-2.09-2.091c-.575-1.448-.442-4.884-.442-6.484 0-1.6-.128-5.04.441-6.483a3.712 3.712 0 012.091-2.09c1.448-.575 4.883-.442 6.483-.442 1.6 0 5.04-.128 6.484.441a3.712 3.712 0 012.09 2.091c.575 1.448.442 4.884.442 6.484 0 1.6.133 5.04-.441 6.483z"/></symbol><symbol id="instagram-circle" viewBox="0 0 34.758 34.758" xmlns="http://www.w3.org/2000/svg"><defs><style>.aocls-1{fill:#5b5b5b}</style></defs><g id="aoGroup_70"><path id="aoPath_28" d="M45.7 21.161a17.377 17.377 0 105.091 12.288A17.3 17.3 0 0045.7 21.161zm-.952 23.624a16.042 16.042 0 114.686-11.336 16 16 0 01-4.691 11.336z" class="aocls-1" transform="translate(-16.028 -16.07)"/><path id="aoPath_29" d="M184 178.416a5.62 5.62 0 105.62 5.62 5.626 5.626 0 00-5.62-5.62zm0 10.075a4.456 4.456 0 114.455-4.456 4.45 4.45 0 01-4.455 4.456z" class="aocls-1" transform="translate(-166.618 -166.657)"/><path id="aoPath_30" d="M148.361 136h-9.19a4.161 4.161 0 00-4.171 4.1v9.19a3.98 3.98 0 004.172 3.875h9.19a3.97 3.97 0 004.167-3.875v-9.19a4.151 4.151 0 00-4.168-4.1zm3.153 13.292a2.962 2.962 0 01-3.153 2.86h-9.19a2.9 2.9 0 01-3.085-2.86V140.1a3.088 3.088 0 013.085-3.088h9.19a3.147 3.147 0 013.153 3.088z" class="aocls-1" transform="translate(-126.382 -127.313)"/><path id="aoPath_31" d="M320.5 167.921a.9.9 0 10.9.9.9.9 0 00-.9-.9z" class="aocls-1" transform="translate(-297.61 -156.922)"/></g></symbol><symbol viewBox="0 0 42 43" id="linkedin" xmlns="http://www.w3.org/2000/svg"><path d="M9.401 42.01H.694V13.969H9.4V42.01zM5.043 10.144C2.258 10.144 0 7.837 0 5.053a5.043 5.043 0 0110.086 0c0 2.784-2.26 5.09-5.043 5.09zM41.992 42.01h-8.69V28.36c0-3.253-.065-7.425-4.527-7.425-4.527 0-5.22 3.534-5.22 7.19V42.01h-8.699V13.969h8.351v3.825h.122c1.163-2.203 4.002-4.528 8.24-4.528C40.38 13.266 42 19.069 42 26.606V42.01h-.01z"/></symbol><symbol id="linkedin-circle" viewBox="0 0 34.623 34.623" xmlns="http://www.w3.org/2000/svg"><defs><style>.aqcls-1{fill:#5b5b5b}</style></defs><path id="aqPath_32" d="M234.437 224.769v-6.437c0-3.323-1.8-4.864-4.141-4.864a3.655 3.655 0 00-3.247 1.8v-1.509H223.5v11.01h3.549v-6.276a2.38 2.38 0 01.141-.874 1.993 1.993 0 011.859-1.315c1.289 0 1.839.991 1.839 2.442v6.023z" class="aqcls-1" transform="translate(-208.434 -199.2)"/><path id="aqPath_33" d="M147.049 141.034a1.9 1.9 0 10-.045 3.8h.026a1.9 1.9 0 10.02-3.8z" class="aqcls-1" transform="translate(-135.736 -132.014)"/><path id="aqRectangle_9" d="M0 0h3v11H0z" class="aqcls-1" transform="translate(10.088 14.766)"/><path id="aqPath_34" d="M32.812 16.5a17.312 17.312 0 1017.311 17.312A17.312 17.312 0 0032.812 16.5zm11.472 28.784a16.225 16.225 0 114.752-11.473 16.119 16.119 0 01-4.752 11.473z" class="aqcls-1" transform="translate(-15.5 -16.5)"/></symbol><symbol viewBox="0 0 21 30" id="map-marker" xmlns="http://www.w3.org/2000/svg"><path d="M10.5 0A10.492 10.492 0 000 10.5C0 18.375 10.5 30 10.5 30S21 18.375 21 10.5A10.492 10.492 0 0010.5 0zm0 14.25a3.75 3.75 0 113.75-3.75 3.751 3.751 0 01-3.75 3.75z"/></symbol><symbol viewBox="0 0 17.849 18.572" id="minibar-o" xmlns="http://www.w3.org/2000/svg"><defs><style>.ascls-2,.ascls-3{fill:none;stroke:#5f4d45;stroke-linecap:round;stroke-linejoin:round;stroke-width:1.2px}.ascls-3{fill:#fff}</style></defs><g id="asLayer_2" opacity=".8" transform="translate(.6 .6)"><g id="asLayer_1"><path id="asPath_113" d="M15.36 7.39v5.791a3.214 3.214 0 00.64 1.99 2.758 2.758 0 002.28 1.057 2.99 2.99 0 002.374-1.064 3.257 3.257 0 00.724-2.121V7.39z" class="ascls-2" transform="translate(-4.755 -2.555)"/><path id="asLine_42" d="M0 0v3.134" class="ascls-3" transform="translate(13.63 13.92)"/><path id="asLine_43" d="M4.806 0H0" class="ascls-3" transform="translate(11.227 17.054)"/><path id="asLine_44" d="M0 0h6.044" class="ascls-2" transform="translate(10.605 7.434)"/><path id="asPath_114" d="M2.664 2.606V6.19L1.123 7.731a1.4 1.4 0 00-.413 1v8.382a.97.97 0 00.97.97h5.226a.97.97 0 00.97-.97V8.6a1.448 1.448 0 00-.521-1.093L5.6 6.059V2.606S6.964.71 4.293.71C1.3.71 2.664 2.606 2.664 2.606z" class="ascls-2" transform="translate(-.71 -.71)"/><path id="asPath_115" d="M0 0h3.569A1.535 1.535 0 015.1 1.571v1.346a1.535 1.535 0 01-1.531 1.535H0z" class="ascls-2" transform="rotate(180 3.583 6.96)"/><path id="asPath_116" d="M21.038 13.83s.2 2.338-1.5 2.447" class="ascls-2" transform="translate(-5.91 -4.333)"/></g></g></symbol><symbol viewBox="0 0 18.179 29.086" id="mobile" xmlns="http://www.w3.org/2000/svg"><path d="M15.452 0H2.727A2.728 2.728 0 000 2.727v23.632a2.728 2.728 0 002.727 2.727h12.725a2.728 2.728 0 002.727-2.727V2.727A2.728 2.728 0 0015.452 0zM9.089 27.268a1.818 1.818 0 111.818-1.818 1.816 1.816 0 01-1.818 1.818zm6.363-6.135a.684.684 0 01-.682.682H3.409a.684.684 0 01-.682-.682V3.409a.684.684 0 01.682-.682H14.77a.684.684 0 01.682.682z"/></symbol><symbol viewBox="0 0 18.124 13.42" id="photo-o" xmlns="http://www.w3.org/2000/svg"><defs><style>.aucls-2{fill:none;stroke:#171b0a;stroke-miterlimit:10;stroke-width:1.2px}</style></defs><g id="auGroup_331" opacity=".6" transform="translate(.6 .6)"><g id="auGroup_333"><path id="auPath_86" d="M17.137 12.432H.213V.212h16.924z" class="aucls-2" transform="translate(-.213 -.212)"/><path id="auPath_87" d="M.213 8.113l3.333-3.686 7.841 8" class="aucls-2" transform="translate(-.213 -.212)"/><path id="auPath_88" d="M7.466 8.43l2.614-2.448 6.142 6.45" class="aucls-2" transform="translate(-.213 -.212)"/><path id="auPath_89" d="M14.85 4.093A1.193 1.193 0 1113.657 2.9a1.193 1.193 0 011.193 1.193z" class="aucls-2" transform="translate(-.213 -.212)"/></g></g></symbol><symbol id="pinterest-circle" viewBox="0 0 34.758 34.758" xmlns="http://www.w3.org/2000/svg"><defs><style>.avcls-1{fill:#5b5b5b;fill-rule:evenodd}</style></defs><g id="avGroup_71"><path id="avPath_35" d="M45.7 21.157a17.377 17.377 0 105.091 12.288A17.3 17.3 0 0045.7 21.157zm-.952 23.615a16.03 16.03 0 114.686-11.326 15.97 15.97 0 01-4.691 11.325z" class="avcls-1" transform="translate(-16.028 -16.066)"/><path id="avPath_36" d="M165.567 133.643c-4.984 0-7.515 3.455-7.515 6.351a5.6 5.6 0 00.192 1.53 3.365 3.365 0 001.963 2.367.352.352 0 00.519-.25c.058-.183.163-.626.221-.818a.473.473 0 00-.144-.568 2.754 2.754 0 01-.577-1.059 3.493 3.493 0 01-.125-.943 4.914 4.914 0 015.187-4.879c2.819 0 4.378 1.665 4.378 3.9a9.144 9.144 0 01-.193 1.886c-.442 2.05-1.6 3.532-3.147 3.532a1.592 1.592 0 01-1.665-1.963c.154-.606.375-1.241.568-1.857a6.532 6.532 0 00.375-1.751 1.379 1.379 0 00-1.434-1.53c-1.126 0-2.031 1.136-2.031 2.636a4.154 4.154 0 00.067.751 3.713 3.713 0 00.27.866s-1.155 4.725-1.347 5.553a10.962 10.962 0 00-.029 3.868c.01.115.173.144.25.058a10.775 10.775 0 001.905-3.329c.115-.462.741-2.81.741-2.81a3 3 0 002.569 1.28c2.742 0 4.783-1.992 5.446-4.888a9.226 9.226 0 00.231-2.1c.004-3.033-2.642-5.833-6.675-5.833z" class="avcls-1" transform="translate(-147.765 -125.127)"/></g></symbol><symbol viewBox="0 0 65 65" id="play-circle" xmlns="http://www.w3.org/2000/svg"><path d="M44.5 30.168L28.032 19.834c-2.006-1.117-4.532.317-4.532 2.666V43c0 2.336 2.514 3.783 4.532 2.666L44.5 35.5c2.082-1.155 2.082-4.164 0-5.332zM63.984 32.5c0-17.393-14.091-31.484-31.484-31.484S1.016 15.107 1.016 32.5 15.107 63.984 32.5 63.984 63.984 49.893 63.984 32.5zm-56.875 0C7.11 18.472 18.472 7.11 32.5 7.11c14.028 0 25.39 11.362 25.39 25.39S46.529 57.89 32.5 57.89 7.11 46.529 7.11 32.5z"/></symbol><symbol viewBox="0 0 16.646 16.645" id="size-o" xmlns="http://www.w3.org/2000/svg"><defs><clipPath id="axclip-path"><path id="axRectangle_176" stroke-width="1.2" d="M0 0h16.337v16.337H0z"/></clipPath><style>.axcls-3{fill:none;stroke:#171b0a;stroke-width:1.2px;stroke-linecap:round;stroke-linejoin:round}</style></defs><g id="axGroup_339" opacity=".6" transform="translate(.154 .154)"><path id="axLine_21" d="M10.308 0H0" class="axcls-3" transform="translate(3.013 1.728)"/><g id="axGroup_336"><g id="axGroup_335" clip-path="url(#axclip-path)"><path id="axLine_22" d="M10.308 0H0" class="axcls-3" transform="translate(3.013 14.611)"/><path id="axLine_23" d="M0 10.317V0" class="axcls-3" transform="translate(1.73 3.011)"/></g></g><path id="axLine_24" d="M0 10.317V0" class="axcls-3" transform="translate(14.604 3.011)"/><g id="axGroup_338" transform="translate(.445 .446)"><g id="axGroup_340"><path id="axRectangle_177" d="M0 0h2.567v2.567H0z" class="axcls-3" transform="translate(12.879)"/><path id="axRectangle_178" d="M0 0h2.567v2.567H0z" class="axcls-3"/><path id="axRectangle_179" d="M0 0h2.567v2.568H0z" class="axcls-3" transform="translate(12.879 12.878)"/><path id="axRectangle_180" d="M0 0h2.567v2.568H0z" class="axcls-3" transform="translate(0 12.878)"/></g></g></g></symbol><symbol viewBox="0 0 14.338 18.573" id="speaker-o" xmlns="http://www.w3.org/2000/svg"><defs><style>.aycls-2{fill:none;stroke:#5f4d45;stroke-linecap:round;stroke-linejoin:round;stroke-width:1.2px}</style></defs><g id="ayLayer_2" opacity=".8" transform="translate(.6 .6)"><g id="ayLayer_1"><path id="ayRectangle_196" d="M0 0h9.207v13.587H0z" class="aycls-2" transform="rotate(180 4.603 8.686)"/><circle id="ayEllipse_89" cx="2.476" cy="2.476" r="2.476" class="aycls-2" transform="translate(2.128 10.583)"/><circle id="ayEllipse_90" cx="1.629" cy="1.629" r="1.629" class="aycls-2" transform="translate(2.975 5.632)"/><path id="ayPath_117" d="M13.63 3.05a2.092 2.092 0 012.092 2.092" class="aycls-2" transform="translate(-4.278 -1.356)"/><path id="ayPath_118" d="M13.63.71a3.786 3.786 0 013.786 3.79" class="aycls-2" transform="translate(-4.278 -.71)"/></g></g></symbol><symbol viewBox="0 0 19.47 19.289" id="swimming-pool-o" xmlns="http://www.w3.org/2000/svg"><defs><style>.azcls-2{fill:none;stroke:#5f4d45;stroke-linecap:round;stroke-linejoin:round;stroke-width:1.2px}</style></defs><g id="azLayer_2" opacity=".8" transform="translate(.6 .6)"><g id="azLayer_1"><path id="azPath_119" d="M.71 19.09c1.144 0 1.144 1.448 2.28 1.448s1.144-1.448 2.288-1.448 1.136 1.448 2.28 1.448 1.136-1.448 2.28-1.448 1.144 1.448 2.287 1.448 1.136-1.448 2.28-1.448 1.144 1.448 2.287 1.448 1.144-1.448 2.287-1.448" class="azcls-2" transform="translate(-.71 -5.793)"/><path id="azPath_120" d="M.71 23.71c1.144 0 1.144 1.448 2.28 1.448s1.144-1.448 2.288-1.448 1.136 1.448 2.28 1.448 1.136-1.448 2.28-1.448 1.144 1.448 2.287 1.448 1.136-1.448 2.28-1.448 1.144 1.448 2.287 1.448 1.144-1.448 2.287-1.448" class="azcls-2" transform="translate(-.71 -7.069)"/><path id="azPath_121" d="M21.51 2.168a1.448 1.448 0 012.9 0" class="azcls-2" transform="translate(-6.454 -.72)"/><path id="azLine_45" d="M0 10.532V0" class="azcls-2" transform="translate(15.056 1.448)"/><path id="azPath_122" d="M10.77 2.168a1.448 1.448 0 012.9 0" class="azcls-2" transform="translate(-3.488 -.72)"/><path id="azLine_46" d="M0 10.532V0" class="azcls-2" transform="translate(7.282 1.448)"/><path id="azLine_47" d="M0 0h6.862" class="azcls-2" transform="translate(7.608 6.167)"/><path id="azLine_48" d="M0 0h6.862" class="azcls-2" transform="translate(7.608 9.772)"/></g></g></symbol><symbol viewBox="0 0 18.576 16.493" id="tea-o" xmlns="http://www.w3.org/2000/svg"><defs><style>.bacls-2{fill:none;stroke:#5f4d45;stroke-linecap:round;stroke-linejoin:round;stroke-width:1.2px}</style></defs><g id="baLayer_2" opacity=".8" transform="translate(.6 .793)"><g id="baLayer_1"><path id="baPath_107" d="M7.352 16.354A6.761 6.761 0 012.56 9.883V9h13.529v.869a6.761 6.761 0 01-5.009 6.515" class="bacls-2" transform="translate(-1.221 -2.999)"/><path id="baPath_108" d="M12.827 20.927H4.793C2.3 20.927.71 20.2.71 19.24h16.207c0 .934-1.517 1.687-4.09 1.687z" class="bacls-2" transform="translate(-.71 -5.827)"/><path id="baPath_109" d="M20.666 11.617s2.324-1.39 2.526.442-2.982 2.591-3.952 2.664" class="bacls-2" transform="translate(-5.827 -3.583)"/><path id="baPath_110" d="M8.719 1.54c.159.369.456.543.456 1.158 0 .854-.565.854-.565 1.708a1.716 1.716 0 00.405 1.086" class="bacls-2" transform="translate(-2.892 -.939)"/><path id="baPath_111" d="M14.519 1.54c.166.369.463.543.463 1.158 0 .854-.572.854-.572 1.708a1.716 1.716 0 00.427 1.086" class="bacls-2" transform="translate(-4.493 -.939)"/><path id="baPath_112" d="M11.619.71c.166.369.463.543.463 1.158 0 .854-.572.854-.572 1.708a1.694 1.694 0 00.413 1.05" class="bacls-2" transform="translate(-3.692 -.71)"/></g></g></symbol><symbol viewBox="0 0 18.573 12.062" id="tv-o" xmlns="http://www.w3.org/2000/svg"><defs><style>.bbcls-2{fill:none;stroke:#5f4d45;stroke-linecap:round;stroke-linejoin:round;stroke-width:1.2px}</style></defs><g id="bbLayer_2" opacity=".8" transform="translate(.6 .6)"><g id="bbLayer_1"><path id="bbRectangle_197" d="M0 0h17.373v9.352H0z" class="bbcls-2"/><path id="bbLine_49" d="M0 4.046L4.046 0" class="bbcls-2" transform="translate(4.061 2.324)"/><path id="bbLine_50" d="M0 2.91L2.91 0" class="bbcls-2" transform="translate(2.432 2.895)"/><path id="bbLine_51" d="M0 1.288L2.193 0" class="bbcls-2" transform="translate(4.611 9.352)"/><path id="bbLine_52" d="M2.193 1.288L0 0" class="bbcls-2" transform="translate(10.568 9.352)"/></g></g></symbol><symbol viewBox="0 0 25 21" id="twitter" xmlns="http://www.w3.org/2000/svg"><path d="M22.43 5.06c.016.222.016.444.016.667 0 6.773-5.155 14.578-14.578 14.578-2.903 0-5.6-.841-7.868-2.3.412.047.809.063 1.237.063 2.396 0 4.6-.809 6.361-2.19a5.133 5.133 0 01-4.79-3.553c.317.048.634.08.967.08.46 0 .92-.064 1.349-.175a5.125 5.125 0 01-4.109-5.028v-.064a5.16 5.16 0 002.316.65 5.12 5.12 0 01-2.284-4.266c0-.952.254-1.825.698-2.586A14.564 14.564 0 0012.31 6.298a5.784 5.784 0 01-.127-1.174A5.121 5.121 0 0117.306 0c1.476 0 2.808.619 3.744 1.618A10.088 10.088 0 0024.302.381a5.11 5.11 0 01-2.253 2.823A10.271 10.271 0 0025 2.411a11.016 11.016 0 01-2.57 2.65z"/></symbol><symbol id="twitter-circle" viewBox="0 0 34.758 34.767" xmlns="http://www.w3.org/2000/svg"><defs><style>.bdcls-1{fill:#5b5b5b;fill-rule:evenodd}</style></defs><g id="bdGroup_72"><path id="bdPath_37" d="M45.7 21.094a17.389 17.389 0 105.09 12.3 17.356 17.356 0 00-5.09-12.3zm-.962 23.625a16.019 16.019 0 114.7-11.326 15.971 15.971 0 01-4.704 11.326z" class="bdcls-1" transform="translate(-16.029 -16.004)"/><path id="bdPath_38" d="M150.75 158.281a7.418 7.418 0 01-2.319.876 3.656 3.656 0 00-6.3 2.444 3.743 3.743 0 00.106.818 10.334 10.334 0 01-7.506-3.744 3.49 3.49 0 001.178 4.783 2.923 2.923 0 01-1.584-.443v.048a3.364 3.364 0 00.188 1.289 3.584 3.584 0 002.645 2.213 3.689 3.689 0 01-.978.134 3.315 3.315 0 01-.691-.077 3.666 3.666 0 003.394 2.5 7.367 7.367 0 01-4.515 1.53c-.3 0-.578-.019-.877-.048a10.508 10.508 0 005.581 1.607 10.108 10.108 0 0010.1-8.026 9.812 9.812 0 00.223-2.165v-.462a7.242 7.242 0 001.827-1.857 7.7 7.7 0 01-2.08.568 3.6 3.6 0 001.608-1.988z" class="bdcls-1" transform="translate(-124.979 -147.734)"/></g></symbol><symbol viewBox="0 0 19.07 12.898" id="wifi-o" xmlns="http://www.w3.org/2000/svg"><defs><style>.becls-2{fill:none;stroke:#5f4d45;stroke-linecap:round;stroke-linejoin:round;stroke-width:1.2px}</style></defs><g id="beLayer_2" opacity=".8" transform="translate(.849 .6)"><g id="beLayer_1"><path id="bePath_123" d="M.71 4.289a12.356 12.356 0 0117.373 0" class="becls-2" transform="translate(-.71 -.72)"/><path id="bePath_124" d="M3.76 7.82a9.113 9.113 0 0112.95 0" class="becls-2" transform="translate(-1.552 -1.935)"/><path id="bePath_125" d="M6.89 11.455a5.834 5.834 0 018.418 0" class="becls-2" transform="translate(-2.417 -3.189)"/><circle id="beEllipse_91" cx="1.317" cy="1.317" r="1.317" transform="translate(7.369 9.663)"/></g></g></symbol><symbol viewBox="0 0 55 38" id="youtube" xmlns="http://www.w3.org/2000/svg"><path d="M53.848 5.946a6.79 6.79 0 00-4.778-4.81C44.855 0 27.955 0 27.955 0S11.055 0 6.84 1.137a6.79 6.79 0 00-4.778 4.809C.933 10.188.933 19.038.933 19.038s0 8.851 1.13 13.093c.62 2.34 2.452 4.107 4.777 4.732C11.055 38 27.955 38 27.955 38s16.9 0 21.115-1.137c2.325-.625 4.157-2.392 4.778-4.732 1.13-4.242 1.13-13.093 1.13-13.093s0-8.85-1.13-13.092zm-31.42 21.128V11.003l14.125 8.036-14.125 8.035z"/></symbol></svg>